<?xml version="1.0" standalone="no"?>
<!DOCTYPE svg PUBLIC "-//W3C//DTD SVG 20010904//EN"
 "http://www.w3.org/TR/2001/REC-SVG-20010904/DTD/svg10.dtd">
<svg version="1.0" xmlns="http://www.w3.org/2000/svg"
 width="1000.000000pt" height="1000.000000pt" viewBox="0 0 1000.000000 1000.000000"
 preserveAspectRatio="xMidYMid meet">
<metadata>
Created by potrace 1.16, written by Peter Selinger 2001-2019
</metadata>
<g transform="translate(0.000000,1000.000000) scale(0.100000,-0.100000)"
fill="#000000" stroke="none">
<path d="M8845 5375 l0 -515 53 0 52 0 0 213 c0 221 5 259 41 312 37 53 84 79
153 83 51 3 67 0 96 -20 69 -46 75 -73 78 -345 l3 -243 55 0 54 0 0 213 c0
292 -14 370 -74 435 -48 53 -152 73 -242 47 -46 -13 -69 -28 -107 -66 -26 -27
-49 -49 -52 -49 -3 0 -5 101 -5 225 l0 225 -52 0 -53 0 0 -515z"/>
<path d="M4645 5551 c-37 -16 -83 -60 -112 -107 -10 -16 -12 -9 -12 44 l-1 62
-55 0 -55 0 0 -345 0 -345 55 0 55 0 0 219 c0 229 4 257 47 322 35 53 78 73
146 67 l57 -5 0 48 c0 33 -4 49 -16 53 -28 11 -68 6 -109 -13z"/>
<path d="M5085 5554 c-85 -27 -152 -87 -193 -174 -38 -79 -43 -229 -13 -329
28 -94 94 -163 178 -187 80 -23 229 -15 301 16 l52 22 0 49 c0 27 -2 49 -5 49
-3 0 -29 -12 -58 -27 -45 -24 -64 -28 -143 -28 -82 0 -94 3 -132 28 -57 37
-94 96 -100 157 l-5 50 247 0 246 0 0 73 c0 141 -48 235 -144 282 -70 34 -160
42 -231 19z m174 -99 c16 -8 40 -28 55 -45 27 -32 51 -104 41 -120 -4 -6 -84
-10 -197 -10 l-190 0 5 28 c10 50 49 104 96 133 36 23 56 29 103 29 33 0 72
-7 87 -15z"/>
<path d="M5767 5551 c-108 -36 -157 -94 -157 -189 0 -89 45 -133 201 -198 93
-38 149 -85 149 -124 0 -35 -23 -69 -58 -86 -50 -23 -181 -16 -239 14 -23 12
-45 22 -48 22 -3 0 -5 -25 -5 -55 l0 -54 52 -16 c66 -19 190 -19 257 1 103 30
161 113 146 208 -14 81 -54 114 -228 186 -42 18 -86 43 -97 57 -30 38 -26 84
11 119 29 28 34 29 122 29 69 0 100 -5 125 -18 l32 -18 0 55 c0 52 -1 54 -32
66 -61 21 -168 22 -231 1z"/>
<path d="M6425 5554 c-92 -29 -162 -97 -202 -196 -22 -54 -24 -72 -21 -172 3
-97 7 -119 32 -174 57 -123 146 -168 315 -160 70 4 110 11 149 28 l52 22 0 49
c0 27 -2 49 -5 49 -3 0 -29 -12 -58 -27 -69 -35 -177 -43 -241 -19 -79 30
-143 125 -134 199 l3 28 244 2 245 2 -2 60 c-6 154 -49 240 -144 289 -70 35
-160 43 -233 20z m174 -99 c16 -8 40 -28 55 -45 27 -32 51 -104 41 -120 -4 -6
-84 -10 -197 -10 l-190 0 6 33 c10 50 57 110 106 135 52 26 136 30 179 7z"/>
<path d="M7142 5556 c-29 -7 -70 -21 -92 -31 -37 -17 -38 -19 -42 -71 -1 -30
1 -54 5 -54 5 0 22 10 39 21 69 49 207 65 264 30 47 -28 84 -127 55 -145 -5
-3 -60 -13 -122 -21 -145 -20 -202 -39 -250 -82 -43 -39 -59 -82 -59 -161 0
-132 84 -200 236 -190 82 6 140 35 173 88 23 38 31 29 31 -32 l0 -48 56 0 56
0 -4 268 -3 268 -30 59 c-25 49 -38 63 -80 83 -60 30 -156 38 -233 18z m238
-399 c0 -121 -72 -207 -179 -215 -99 -7 -167 50 -157 131 9 80 53 110 193 131
151 24 143 26 143 -47z"/>
<path d="M7931 5548 c-30 -15 -54 -37 -74 -70 -36 -58 -51 -51 -46 21 l4 51
-52 0 -53 0 0 -345 0 -345 53 0 52 0 -3 187 c-4 212 6 280 49 348 38 60 77 79
151 72 l58 -5 0 48 c0 34 -4 50 -16 54 -31 12 -80 6 -123 -16z"/>
<path d="M8403 5551 c-163 -48 -244 -168 -244 -358 0 -149 52 -248 162 -308
44 -23 69 -30 136 -33 83 -5 161 8 198 32 17 11 20 22 17 59 l-4 46 -41 -22
c-33 -17 -59 -22 -123 -22 -72 0 -85 3 -130 30 -35 22 -57 46 -79 85 -27 49
-30 64 -30 140 1 72 5 93 28 136 30 60 86 110 137 124 58 16 151 12 199 -10
24 -11 45 -20 47 -20 2 0 4 23 4 51 0 48 -1 51 -37 65 -58 25 -168 27 -240 5z"/>
<path d="M3310 4404 l0 -255 26 3 25 3 2 252 2 253 -27 0 -28 0 0 -256z"/>
<path d="M3500 4404 l0 -255 26 3 25 3 2 253 2 252 -27 0 -28 0 0 -256z"/>
<path d="M8230 4405 l0 -255 25 0 25 0 0 255 0 255 -25 0 -25 0 0 -255z"/>
<path d="M2555 4641 c-136 -33 -216 -148 -202 -288 14 -139 131 -224 285 -209
76 8 112 23 112 48 0 19 -19 18 -78 -3 -91 -34 -227 31 -252 119 -14 53 -12
137 4 176 33 79 135 134 225 122 25 -3 58 -9 74 -12 24 -6 27 -3 27 18 0 22
-5 26 -46 32 -57 7 -109 6 -149 -3z"/>
<path d="M6115 4641 c-66 -17 -115 -69 -115 -123 0 -50 36 -86 139 -138 104
-52 121 -68 121 -119 0 -73 -94 -102 -202 -61 -29 11 -54 20 -56 20 -2 0 -2
-12 0 -27 3 -24 10 -30 53 -41 58 -15 152 -9 194 13 51 26 74 64 68 113 -6 57
-34 85 -132 134 -102 51 -125 72 -125 114 0 75 113 106 223 59 13 -5 17 -2 17
13 0 11 -7 25 -15 32 -18 15 -128 22 -170 11z"/>
<path d="M570 4396 l0 -246 89 0 c217 0 333 89 333 255 0 162 -80 224 -304
233 l-118 4 0 -246z m252 182 c55 -16 105 -75 113 -132 12 -79 -2 -133 -47
-182 -48 -52 -84 -64 -190 -64 l-78 0 0 195 0 195 81 0 c45 0 99 -5 121 -12z"/>
<path d="M1515 4580 c-4 -6 -5 -25 -3 -43 3 -30 1 -32 -32 -37 -44 -6 -48 -33
-5 -40 l30 -5 5 -125 c4 -97 9 -132 22 -153 29 -43 128 -50 128 -8 0 14 -6 17
-29 13 -22 -3 -33 2 -50 24 -20 25 -21 37 -19 138 l3 111 48 3 c38 3 47 7 47
22 0 15 -9 19 -47 22 l-48 3 -3 43 c-3 33 -7 42 -22 42 -10 0 -22 -5 -25 -10z"/>
<path d="M4477 4583 c-4 -3 -7 -23 -7 -44 0 -35 -2 -38 -32 -41 -47 -4 -51
-35 -6 -40 l33 -3 5 -133 c5 -131 5 -134 33 -158 41 -35 117 -31 117 5 0 14
-7 17 -29 13 -20 -3 -35 2 -50 17 -20 20 -21 31 -19 139 l3 117 48 3 c39 3 47
6 47 23 0 16 -7 19 -50 19 l-50 0 0 45 c0 37 -3 45 -18 45 -10 0 -22 -3 -25
-7z"/>
<path d="M8958 4548 c-3 -40 -5 -43 -35 -46 -24 -2 -33 -8 -33 -22 0 -14 9
-20 33 -22 l32 -3 5 -136 c3 -93 9 -141 19 -152 18 -22 77 -32 108 -18 33 15
24 37 -13 33 -55 -6 -65 19 -62 154 l3 119 48 3 c39 3 48 6 45 20 -2 13 -16
18 -51 20 l-47 3 0 45 c0 40 -2 44 -24 44 -22 0 -25 -5 -28 -42z"/>
<path d="M1160 4497 c-35 -9 -46 -17 -48 -34 -4 -27 -4 -27 41 -8 41 17 100
20 126 5 24 -13 47 -68 34 -81 -6 -6 -43 -15 -84 -20 -89 -13 -124 -30 -145
-70 -20 -40 -12 -88 22 -120 21 -19 36 -24 84 -24 51 0 63 4 88 28 35 33 42
34 42 2 0 -20 5 -25 25 -25 l25 0 0 135 c0 155 -10 188 -65 211 -40 17 -83 17
-145 1z m160 -199 c-1 -42 -19 -74 -56 -99 -35 -23 -65 -24 -103 -4 -33 17
-44 47 -29 81 14 29 74 50 151 53 35 1 37 0 37 -31z"/>
<path d="M1824 4501 c-43 -11 -54 -19 -54 -42 0 -21 10 -25 27 -8 5 5 34 13
64 16 45 4 58 2 80 -16 28 -21 43 -67 27 -77 -5 -3 -40 -10 -77 -15 -38 -4
-84 -16 -104 -25 -92 -44 -67 -174 37 -189 48 -8 112 14 122 40 10 25 34 18
34 -10 0 -20 5 -25 25 -25 l25 0 0 133 c0 106 -4 139 -18 167 -25 52 -100 72
-188 51z m149 -210 c-3 -65 -49 -111 -112 -111 -37 0 -81 38 -81 70 0 25 32
58 62 64 13 3 32 7 43 10 11 2 36 3 55 3 33 -2 35 -4 33 -36z"/>
<path d="M2945 4495 c-131 -46 -154 -234 -40 -321 33 -25 46 -28 110 -29 63 0
77 3 113 28 58 41 75 83 70 173 -3 67 -6 76 -36 107 -53 55 -136 71 -217 42z
m168 -63 c27 -27 31 -39 34 -94 4 -74 -8 -103 -56 -135 -107 -72 -241 39 -202
167 6 22 27 52 48 70 33 30 41 32 90 28 44 -4 60 -11 86 -36z"/>
<path d="M3772 4503 c-39 -8 -99 -74 -112 -123 -23 -84 7 -174 69 -212 68 -43
231 -24 231 27 0 18 2 18 -50 0 -55 -19 -91 -19 -133 1 -39 19 -67 60 -67 98
l0 26 135 0 135 0 0 38 c0 45 -26 99 -60 124 -26 19 -106 30 -148 21z m114
-51 c25 -19 44 -53 44 -76 0 -14 -17 -16 -110 -16 -70 0 -110 4 -110 10 0 24
32 70 58 84 37 20 92 19 118 -2z"/>
<path d="M4201 4500 c-73 -17 -131 -96 -131 -177 0 -124 102 -202 231 -176 36
7 45 13 47 32 3 20 1 23 -15 17 -77 -31 -162 -7 -193 55 -64 125 54 259 184
209 23 -9 26 -7 26 14 0 18 -7 25 -31 30 -39 7 -74 6 -118 -4z"/>
<path d="M4996 4496 c-76 -28 -116 -89 -116 -178 0 -50 15 -87 53 -126 63 -65
183 -68 255 -6 49 42 66 87 60 165 -5 66 -26 103 -76 132 -42 25 -127 31 -176
13z m134 -39 c62 -31 88 -125 56 -202 -27 -64 -107 -91 -177 -60 -98 44 -106
195 -14 255 34 23 98 26 135 7z"/>
<path d="M5485 4496 c-17 -7 -36 -20 -44 -29 -19 -24 -31 -21 -31 8 0 20 -5
25 -25 25 l-25 0 0 -175 0 -175 25 0 25 0 0 118 c0 99 3 122 19 146 39 59 109
74 158 32 28 -24 28 -27 33 -158 5 -129 6 -133 28 -136 22 -3 22 -3 22 133 0
155 -10 188 -65 211 -42 17 -81 17 -120 0z"/>
<path d="M6563 4503 c-13 -2 -36 -18 -53 -34 -30 -30 -46 -25 -38 12 2 9 -7
15 -24 17 l-28 3 0 -256 0 -256 26 3 27 3 -2 97 c-1 53 2 99 7 102 5 3 19 -5
32 -19 48 -51 156 -41 209 20 72 82 64 238 -15 290 -26 17 -103 27 -141 18z
m111 -64 c26 -22 37 -41 41 -73 23 -152 -119 -243 -217 -139 -32 34 -34 147
-2 190 46 62 122 71 178 22z"/>
<path d="M6985 4503 c-75 -20 -131 -112 -122 -200 11 -109 67 -158 182 -157
78 0 115 15 115 44 0 24 1 24 -43 5 -95 -39 -197 13 -197 100 l0 25 135 0 135
0 0 38 c0 45 -26 99 -60 124 -26 19 -109 31 -145 21z m111 -51 c25 -19 44 -53
44 -76 0 -14 -17 -16 -110 -16 -70 0 -110 4 -110 10 0 24 32 70 58 84 37 20
92 19 118 -2z"/>
<path d="M7386 4495 c-78 -27 -116 -88 -116 -183 0 -89 60 -155 150 -168 64
-9 130 11 130 37 0 16 -4 19 -17 14 -46 -18 -100 -17 -141 4 -55 28 -76 68
-70 138 4 46 10 60 42 91 33 34 41 37 94 37 31 0 65 -4 75 -9 13 -6 17 -4 17
13 0 40 -87 54 -164 26z"/>
<path d="M7904 4501 c-43 -11 -54 -19 -54 -41 0 -18 2 -18 35 -4 79 33 165 4
165 -56 0 -30 -18 -40 -73 -40 -51 0 -116 -22 -142 -47 -19 -19 -25 -36 -25
-67 0 -53 21 -82 69 -97 51 -15 102 -5 136 27 28 26 40 25 40 -4 0 -11 8 -17
25 -17 l25 0 0 130 c0 138 -10 181 -47 204 -25 16 -112 23 -154 12z m148 -176
c12 -12 -12 -89 -34 -112 -36 -35 -95 -41 -130 -13 -37 29 -38 73 -2 96 36 24
151 44 166 29z"/>
<path d="M8664 4499 c-70 -20 -99 -96 -55 -143 13 -13 49 -34 81 -46 70 -26
95 -50 86 -83 -11 -45 -85 -60 -153 -32 -44 19 -43 19 -43 -4 0 -26 20 -40 71
-47 94 -13 179 34 179 99 0 42 -27 68 -100 97 -67 26 -90 46 -90 76 0 45 78
69 144 44 23 -9 26 -7 26 14 0 18 -7 25 -31 30 -41 8 -76 6 -115 -5z"/>
<path d="M9251 4496 c-44 -16 -71 -50 -71 -90 0 -41 28 -68 100 -96 67 -26 90
-46 90 -76 0 -48 -93 -72 -150 -39 -36 20 -42 18 -38 -12 3 -24 9 -29 45 -37
99 -21 193 23 193 91 0 53 -14 69 -90 99 -38 15 -77 35 -86 45 -23 26 -11 67
24 80 28 11 94 8 125 -6 16 -6 18 -4 15 16 -5 37 -88 50 -157 25z"/>
<path d="M4714 4487 c-2 -7 -3 -85 -2 -172 l3 -160 28 -3 27 -3 0 175 0 176
-25 0 c-14 0 -28 -6 -31 -13z"/>
<path d="M7644 4487 c-2 -7 -3 -85 -2 -172 l3 -160 28 -3 27 -3 0 175 0 176
-25 0 c-14 0 -28 -6 -31 -13z"/>
<path d="M8420 4325 l0 -175 25 0 25 0 0 175 0 175 -25 0 -25 0 0 -175z"/>
</g>
</svg>
