<?xml version="1.0" standalone="no"?>
<!DOCTYPE svg PUBLIC "-//W3C//DTD SVG 20010904//EN"
 "http://www.w3.org/TR/2001/REC-SVG-20010904/DTD/svg10.dtd">
<svg version="1.0" xmlns="http://www.w3.org/2000/svg"
 width="225.000000pt" height="225.000000pt" viewBox="0 0 225.000000 225.000000"
 preserveAspectRatio="xMidYMid meet">
<metadata>
Created by potrace 1.16, written by Peter Selinger 2001-2019
</metadata>
<g transform="translate(0.000000,225.000000) scale(0.100000,-0.100000)"
fill="#000000" stroke="none">
<path d="M1033 2158 l-93 -93 128 -1 c70 -1 160 -8 200 -16 l74 -15 -108 108
c-60 60 -109 109 -109 109 0 0 -42 -42 -92 -92z"/>
<path d="M1390 1878 l0 -107 -56 39 c-145 101 -347 125 -483 56 -55 -28 -75
-49 -96 -99 -33 -78 -8 -157 71 -225 44 -39 316 -182 344 -182 6 0 26 11 43
24 53 39 134 76 215 97 91 23 290 26 397 5 39 -8 71 -13 72 -12 1 1 -112 116
-252 256 l-255 255 0 -107z"/>
<path d="M242 1367 l-242 -242 245 -245 c135 -135 245 -242 245 -238 0 4 -9
46 -20 93 -11 47 -20 90 -20 96 0 5 27 -9 61 -32 112 -76 246 -122 389 -135
l81 -7 -8 44 c-4 24 -8 100 -8 169 0 111 3 135 29 214 16 50 25 91 20 93 -5 2
-63 28 -128 58 -248 114 -333 185 -381 316 l-21 58 -242 -242z"/>
<path d="M1960 1332 c0 -46 -3 -82 -7 -80 -5 2 -38 18 -74 35 -167 82 -363 84
-497 5 l-44 -25 34 -26 c52 -40 96 -91 121 -141 18 -36 22 -62 22 -135 0 -82
-3 -97 -32 -156 -36 -73 -106 -150 -177 -195 -25 -16 -46 -33 -46 -37 0 -5 25
-35 55 -67 52 -53 155 -120 186 -120 8 0 179 165 382 368 l367 367 -145 145
-145 145 0 -83z"/>
<path d="M1180 993 c-12 -55 -8 -228 4 -241 9 -9 37 20 59 62 29 56 27 130 -4
187 -34 61 -45 60 -59 -8z"/>
<path d="M855 270 l270 -270 127 127 128 128 -33 11 c-94 33 -193 104 -258
186 l-40 52 -152 1 c-99 1 -178 8 -225 19 -40 9 -76 16 -80 16 -4 0 115 -121
263 -270z"/>
</g>
</svg>
